<svg width="155" height="159" fill="none" xmlns="http://www.w3.org/2000/svg"><path d="M135.949 86.467a3.96 3.96 0 0 1 .204-.87c.122-.32.337-.625.647-.916.308-.282.757-.505 1.345-.67l.977-.281.399-4.121-2.69-1.481.067-.702 9.444 5.193-.049.508-8.306 2.527c-.55.178-.951.37-1.202.577-.251.207-.415.508-.494.902l-.328-.032a1.899 1.899 0 0 1-.016-.303 1.832 1.832 0 0 1 .002-.331Zm4.161-6.56-.347 3.583 4.394-1.338-4.047-2.245Zm-6.819 16.996c.1-.336.253-.624.46-.865.216-.239.514-.453.893-.643.387-.178.89-.347 1.511-.508l2.856-.72.264-.892-4.373-1.292.429-1.453 7.725 2.283c.432.127.795.167 1.091.119.303-.036.518-.27.645-.701l.073-.244.33.097-1.122 3.798c-.071.24-.174.517-.308.832a5.319 5.319 0 0 1-.476.922 3.306 3.306 0 0 1-.7.78 2.266 2.266 0 0 1-.962.45c-.358.082-.767.055-1.227-.081-.528-.156-.925-.399-1.193-.728a2.38 2.38 0 0 1-.489-1.099 6.264 6.264 0 0 1-.084-1.198l-2.963.767c-.722.183-1.235.386-1.541.608a2 2 0 0 0-.66.806l-.303-.09a1.527 1.527 0 0 1 .01-.403 3.32 3.32 0 0 1 .114-.545Zm6.516-3.47-.293.992a2.597 2.597 0 0 0 .029 1.541c.095.279.251.528.467.749.217.22.512.385.886.496.374.11.707.13.999.06.301-.067.568-.192.799-.373.228-.173.417-.372.568-.599.15-.227.258-.45.323-.67a3.23 3.23 0 0 0 .097-.488c.035-.188.052-.37.052-.548l-3.927-1.16Zm-9.69 10.527c.451-.847 1.047-1.476 1.787-1.887a4.737 4.737 0 0 1 2.443-.568c.885.041 1.76.291 2.625.752s1.557 1.044 2.075 1.751c.523.72.821 1.502.893 2.345.081.847-.104 1.695-.555 2.542-.451.848-1.049 1.47-1.793 1.867a4.6 4.6 0 0 1-2.443.568c-.881-.027-1.754-.271-2.619-.732-.865-.46-1.559-1.051-2.082-1.771a4.74 4.74 0 0 1-.892-2.345c-.077-.834.11-1.675.561-2.522Zm.543.289c-.306.574-.401 1.146-.286 1.717.12.585.427 1.145.923 1.681.492.545 1.161 1.044 2.009 1.495.847.451 1.634.728 2.361.832.721.113 1.354.053 1.897-.179.546-.219.973-.615 1.278-1.189.301-.565.392-1.139.273-1.724-.111-.58-.412-1.142-.903-1.687-.496-.537-1.168-1.03-2.016-1.482-.847-.451-1.632-.733-2.353-.845-.727-.104-1.366-.042-1.918.186-.542.232-.964.63-1.265 1.195Zm-12.594 15.709c.479-.538.943-.887 1.394-1.048a1.825 1.825 0 0 1 1.362.027c.472.192.987.538 1.548 1.036l4.224 3.76-3.716-8.166.23-.258 8.897 2.637-6.275-5.584.419-.471 7.395 6.582-1.017 1.143-8.13-2.417 3.463 7.661-.997 1.12-5.49-4.886c-.68-.605-1.28-.999-1.801-1.181-.513-.175-.937-.091-1.271.255l-.235-.21Zm-9.258 7.868c.205-.144.469-.281.793-.412.321-.116.693-.152 1.116-.108.415.05.877.245 1.385.584l.851.556 3.383-2.386-.632-3.005.576-.407 2.225 10.546-.417.294-7.335-4.647c-.493-.301-.9-.479-1.22-.534-.321-.056-.656.016-1.006.213l-.19-.269c.054-.063.127-.133.219-.21.078-.08.162-.151.252-.215Zm7.686-1.126-2.941 2.075 3.88 2.458-.939-4.533Zm-22.795 7.864c.236-.082.528-.14.876-.176.34-.022.708.046 1.102.206.385.164.774.479 1.168.946l.663.771 3.913-1.352.228-3.062.666-.231-.794 10.749-.482.166-5.753-6.502c-.39-.426-.732-.71-1.025-.852-.292-.143-.634-.168-1.025-.075l-.108-.312a1.97 1.97 0 0 1 .269-.14c.097-.055.198-.1.302-.136Zm7.696 1.054-3.402 1.176 3.045 3.439.357-4.615Zm-12.851.161c.344-.063.623-.068.836-.016.205.064.37.222.498.473.127.252.236.623.326 1.115l1.448 7.924-1.49.272-1.449-7.924c-.08-.442-.205-.791-.374-1.044-.176-.243-.486-.323-.928-.242l-.251.046-.062-.34 1.446-.264Zm-11.319.957c.35-.015.672.037.967.154.296.128.595.34.898.638.293.308.617.729.97 1.265l1.606 2.469.929-.04-.194-4.555 1.514-.065.342 8.048c.02.45.1.807.24 1.071.132.274.423.402.873.383l.254-.011.015.345-3.956.168c-.25.011-.546.003-.887-.022a5.237 5.237 0 0 1-1.027-.152 3.288 3.288 0 0 1-.964-.409 2.272 2.272 0 0 1-.738-.765c-.193-.312-.3-.708-.32-1.187-.024-.55.077-1.004.302-1.364.225-.35.519-.623.881-.818a6.11 6.11 0 0 1 1.106-.468l-1.685-2.556c-.407-.623-.765-1.043-1.074-1.26a2.007 2.007 0 0 0-.977-.364l-.013-.315a1.48 1.48 0 0 1 .385-.121c.169-.037.353-.06.553-.069Zm5.394 5.041-1.034.044a2.76 2.76 0 0 0-.715.135 2.604 2.604 0 0 0-.734.392c-.233.18-.418.408-.557.684-.138.276-.2.609-.183.999.017.389.106.711.266.964.162.264.366.475.613.635.237.16.487.274.75.343s.51.099.74.089c.14-.006.304-.028.492-.066.19-.028.368-.071.535-.128l-.173-4.091Zm-14.241-1.7c.237.041.42.154.551.338.13.195.173.41.133.647a.796.796 0 0 1-.335.536.81.81 0 0 1-.632.135.764.764 0 0 1-.536-.335.795.795 0 0 1-.138-.617.868.868 0 0 1 .34-.566.802.802 0 0 1 .617-.138ZM51.9 131.082c.232.095.489.245.773.449.27.21.5.505.688.886.18.377.261.871.247 1.482l-.016 1.017 3.825 1.584 2.202-2.141.651.27-7.724 7.517-.471-.196.008-8.682c-.01-.578-.077-1.017-.201-1.318-.125-.3-.364-.545-.718-.735l.126-.305c.082.012.18.036.294.073.11.024.215.056.317.099Zm5.06 5.894-3.326-1.377-.003 4.593 3.33-3.216Zm-14.221-11.454c.292.192.524.422.695.69.166.276.284.624.357 1.042.058.421.074.952.048 1.593l-.139 2.942.777.511 2.504-3.811 1.267.832-4.424 6.732c-.247.376-.39.713-.43 1.01-.053.299.108.573.484.82l.213.14-.19.288-3.309-2.174a7.676 7.676 0 0 1-.706-.536 5.265 5.265 0 0 1-.746-.723 3.307 3.307 0 0 1-.543-.895 2.266 2.266 0 0 1-.152-1.052c.025-.366.17-.75.433-1.151.302-.46.65-.77 1.042-.931a2.378 2.378 0 0 1 1.193-.149c.409.053.799.142 1.171.267l.126-3.059c.033-.744-.012-1.294-.136-1.651a2.008 2.008 0 0 0-.58-.865l.173-.264a1.5 1.5 0 0 1 .383.127c.159.068.322.157.489.267Zm1.434 7.242-.865-.568a2.564 2.564 0 0 0-1.484-.419c-.294.01-.578.087-.852.23-.273.144-.517.378-.731.704-.215.326-.33.639-.348.938-.023.308.02.599.127.873.099.269.235.508.408.717.174.21.356.378.549.504a3.2 3.2 0 0 0 .438.234c.17.088.34.158.509.209l2.249-3.422Zm-7.238-12.304c.68.677 1.111 1.428 1.291 2.255.173.834.12 1.668-.16 2.504-.294.835-.787 1.601-1.477 2.296-.69.696-1.449 1.19-2.275 1.483a4.609 4.609 0 0 1-2.503.179c-.834-.167-1.593-.589-2.274-1.265-.681-.676-1.105-1.428-1.27-2.255a4.599 4.599 0 0 1 .16-2.503c.28-.836.765-1.601 1.456-2.297.69-.695 1.456-1.189 2.296-1.482a4.727 4.727 0 0 1 2.502-.179c.821.167 1.572.588 2.254 1.264Zm-.434.437c-.46-.458-.982-.714-1.562-.769-.594-.054-1.22.079-1.876.4-.663.313-1.333.81-2.01 1.492-.676.681-1.168 1.355-1.477 2.02-.316.659-.44 1.282-.375 1.869.052.586.308 1.109.77 1.567.453.45.978.703 1.572.758.587.061 1.212-.065 1.876-.379.656-.32 1.323-.821 2-1.502.675-.682 1.172-1.352 1.487-2.01.309-.666.434-1.296.375-1.89-.066-.586-.325-1.105-.78-1.556ZM25.109 104.36c.377.613.578 1.159.603 1.637.033.473-.106.905-.418 1.296-.319.397-.798.792-1.437 1.185l-4.815 2.965 8.89-1.211.18.293-5.083 7.764 7.153-4.404.33.536-8.43 5.191-.802-1.303 4.652-7.092-8.333 1.115-.787-1.277 6.259-3.854c.775-.478 1.324-.939 1.648-1.386.316-.441.356-.871.122-1.29l.268-.165Zm-4.832-11.041c.08.237.134.53.166.877.019.342-.054.709-.219 1.1-.167.383-.487.769-.958 1.158l-.778.654 1.307 3.928 3.06.262.222.669-10.739-.915-.16-.484 6.566-5.68c.43-.385.719-.724.864-1.014.146-.291.174-.633.086-1.025l.313-.104c.044.07.09.16.138.27.053.098.098.2.132.304Zm-1.141 7.684-1.137-3.416-3.474 3.006 4.61.41Zm-.951-24.145c.01.25-.02.546-.086.89-.077.333-.25.664-.517.995-.268.32-.682.602-1.243.844l-.93.41.16 4.138 2.864 1.105.028.705L8.404 82.07l-.02-.51 7.891-3.622c.52-.25.892-.495 1.113-.734.22-.238.343-.558.368-.96l.33-.012c.023.079.041.178.056.298.024.109.038.219.043.328Zm-3.24 7.06-.14-3.597-4.173 1.918 4.313 1.68Zm3.554-12.468c-.04.348-.115.616-.227.805-.12.177-.32.29-.596.34-.278.05-.665.046-1.161-.01l-8.005-.898.169-1.505 8.004.898c.448.05.817.031 1.109-.057.282-.099.45-.372.5-.819l.028-.253.343.038-.164 1.46Zm2.355-11.15a2.32 2.32 0 0 1-.43.88c-.207.246-.498.47-.87.674-.38.19-.878.377-1.493.559l-2.83.817-.233.9 4.414 1.142-.38 1.467-7.797-2.018c-.436-.113-.8-.14-1.095-.082-.3.046-.508.287-.62.723l-.065.246-.334-.086.993-3.834a7.55 7.55 0 0 1 .28-.841c.114-.322.262-.635.444-.939.182-.304.406-.572.672-.802.267-.23.582-.392.947-.483.354-.095.764-.081 1.229.039.532.138.938.367 1.217.687.269.317.444.678.525 1.08.082.404.124.802.125 1.195l2.936-.867c.715-.207 1.221-.428 1.52-.66.3-.243.51-.519.632-.828l.305.079c.018.087.02.222.004.404a3.206 3.206 0 0 1-.096.548Zm-6.394 3.69.26-1.001c.055-.213.081-.454.079-.723a2.596 2.596 0 0 0-.161-.817 1.966 1.966 0 0 0-.492-.731c-.224-.213-.525-.369-.903-.466-.377-.098-.71-.107-1-.027-.299.078-.56.211-.785.401-.223.18-.405.386-.547.618a2.505 2.505 0 0 0-.3.681c-.036.136-.063.3-.081.49a2.97 2.97 0 0 0-.034.55l3.964 1.026Zm9.574-16.848a.814.814 0 0 1-.483.43.865.865 0 0 1-.657-.06.796.796 0 0 1-.417-.477.814.814 0 0 1 .054-.644.765.765 0 0 1 .476-.416.796.796 0 0 1 .63.047c.215.108.363.27.444.49a.796.796 0 0 1-.047.63Zm16.3-15.704a3.94 3.94 0 0 1-.741.498c-.307.153-.672.23-1.097.234-.418-.003-.899-.144-1.442-.424l-.908-.456-3.093 2.752.967 2.914-.526.469-3.4-10.228.381-.339 7.812 3.791c.524.243.948.374 1.273.393.325.019.65-.09.975-.326l.22.247a1.909 1.909 0 0 1-.195.233 1.837 1.837 0 0 1-.226.242Zm-7.51 1.985 2.689-2.393-4.133-2.005 1.444 4.398Zm16.552-7.87a2.32 2.32 0 0 1-.924.324c-.32.028-.685-.017-1.093-.135-.404-.132-.889-.35-1.454-.653l-2.586-1.41-.799.476 2.334 3.918-1.302.775-4.122-6.92c-.23-.387-.47-.663-.72-.828-.247-.18-.563-.154-.95.076l-.22.13-.176-.296 3.402-2.026c.215-.128.479-.262.791-.402.308-.148.633-.266.977-.354a3.3 3.3 0 0 1 1.042-.097c.351.023.689.13 1.012.322.319.183.6.48.846.893.282.472.41.92.382 1.344a2.377 2.377 0 0 1-.387 1.138 6.138 6.138 0 0 1-.751.937l2.696 1.449c.654.355 1.169.555 1.544.6a2.01 2.01 0 0 0 1.032-.144l.161.27a1.484 1.484 0 0 1-.28.29c-.132.113-.283.22-.455.323Zm-7.14-1.875.89-.53c.188-.112.376-.265.564-.458a2.6 2.6 0 0 0 .46-.693c.12-.27.174-.558.165-.867-.01-.308-.114-.63-.313-.965-.2-.335-.43-.576-.693-.723a1.966 1.966 0 0 0-.84-.268 2.438 2.438 0 0 0-.824.054 2.506 2.506 0 0 0-.692.273 3.24 3.24 0 0 0-.403.293c-.153.114-.29.236-.41.366l2.096 3.518Zm14.194-1.154c-.906.317-1.77.375-2.593.176a4.731 4.731 0 0 1-2.18-1.24c-.624-.63-1.097-1.407-1.42-2.332-.324-.925-.437-1.823-.339-2.694.104-.884.415-1.66.934-2.329.515-.678 1.225-1.175 2.132-1.492.906-.317 1.767-.37 2.583-.157a4.6 4.6 0 0 1 2.181 1.24c.63.617 1.105 1.388 1.429 2.313.323.925.433 1.83.33 2.713a4.732 4.732 0 0 1-.934 2.329c-.51.665-1.217 1.156-2.123 1.473Zm-.203-.58c.613-.215 1.072-.571 1.374-1.069.309-.51.463-1.131.461-1.862.009-.734-.146-1.554-.463-2.46-.316-.906-.707-1.643-1.17-2.212-.455-.572-.96-.957-1.517-1.154-.55-.21-1.132-.208-1.745.006-.604.212-1.06.572-1.37 1.083-.312.501-.472 1.119-.48 1.852.001.73.16 1.55.477 2.456.317.906.703 1.645 1.157 2.217.464.569.975.957 1.535 1.163.556.198 1.137.19 1.74-.02Zm19.769-3.002c-.717.07-1.295.01-1.735-.179a1.819 1.819 0 0 1-.98-.945c-.216-.461-.36-1.065-.432-1.812l-.544-5.628-2.824 8.516-.343.033-4.735-7.981.808 8.36-.627.061-.953-9.854 1.523-.147 4.323 7.298L72.14 8.69l1.493-.144.708 7.316c.088.906.26 1.602.519 2.09.257.477.625.703 1.105.676l.03.314Zm12.314.475a3.946 3.946 0 0 1-.86-.238c-.316-.134-.613-.36-.892-.681-.27-.32-.475-.776-.617-1.37l-.244-.987-4.103-.557-1.583 2.631-.698-.095 5.552-9.237.505.068 2.206 8.398c.157.556.334.964.53 1.223.198.259.492.435.883.528l-.045.327c-.082.01-.183.01-.303.004-.112.005-.222 0-.33-.014Zm-6.395-4.41 3.567.484-1.168-4.442-2.4 3.958Zm22.29 9.803a3.917 3.917 0 0 1-.76-.47c-.265-.216-.487-.518-.665-.904-.17-.381-.239-.877-.208-1.488l.042-1.015-3.782-1.684-2.257 2.082-.644-.287 7.917-7.312.466.208-.235 8.68c-.005.577.051 1.018.167 1.321.117.304.35.556.699.755l-.134.301a1.915 1.915 0 0 1-.293-.08 1.827 1.827 0 0 1-.313-.108Zm-4.904-6.025 3.289 1.464.123-4.592-3.412 3.128Zm9.275 8.488c-.295-.187-.503-.373-.623-.556-.107-.187-.121-.415-.044-.686.077-.27.25-.617.519-1.039l4.324-6.796 1.278.813-4.324 6.796c-.242.38-.387.72-.436 1.02-.035.299.137.568.517.81l.215.136-.185.292-1.241-.79Zm9.209 7.184a2.324 2.324 0 0 1-.602-.773c-.129-.295-.202-.655-.221-1.08-.004-.424.048-.953.156-1.585l.512-2.901-.706-.606-2.969 3.461-1.15-.986 5.245-6.114c.293-.341.478-.657.555-.946.091-.291-.034-.583-.376-.876l-.193-.166.225-.262 3.005 2.579c.19.162.401.37.633.621.238.245.454.515.647.813.193.297.334.616.424.957.09.34.096.694.018 1.062-.072.36-.264.722-.577 1.086-.358.418-.742.681-1.152.79a2.365 2.365 0 0 1-1.202-.003 6.137 6.137 0 0 1-1.128-.414l-.514 3.018c-.128.733-.153 1.285-.075 1.655a2 2 0 0 0 .465.932l-.205.24a1.48 1.48 0 0 1-.365-.175 3.182 3.182 0 0 1-.45-.327Zm-.5-7.366.786.674c.167.143.372.273.615.39.257.114.524.186.803.214.293.027.584-.012.874-.12.29-.107.561-.309.815-.605.254-.296.409-.591.464-.886a1.956 1.956 0 0 0-.014-.882 2.424 2.424 0 0 0-.314-.763 2.51 2.51 0 0 0-.479-.57 3.196 3.196 0 0 0-.405-.288 3.059 3.059 0 0 0-.478-.272l-2.667 3.108Zm13.189 16.315a.817.817 0 0 1-.175-.622.869.869 0 0 1 .342-.565.796.796 0 0 1 .61-.166c.225.03.41.14.556.33.146.19.201.394.166.61a.8.8 0 0 1-.318.547.866.866 0 0 1-.634.184.795.795 0 0 1-.547-.318Zm4.705 21.235a3.935 3.935 0 0 1-.122-.884c-.002-.342.089-.705.273-1.088.186-.374.524-.744 1.014-1.109l.809-.615-1.113-3.988-3.043-.412-.189-.679 10.681 1.441.137.492-6.839 5.35c-.448.364-.752.688-.912.971-.16.284-.205.623-.136 1.02l-.318.088a1.913 1.913 0 0 1-.124-.277 1.862 1.862 0 0 1-.118-.31Zm1.518-7.618.968 3.467 3.617-2.831-4.585-.636Zm-.245 18.075c-.03-.349.008-.673.113-.973.115-.3.315-.609.599-.924.295-.306.703-.647 1.223-1.022l2.398-1.71-.078-.926-4.544.386-.128-1.51 8.026-.682c.448-.038.801-.133 1.059-.286.269-.143.384-.44.346-.887l-.021-.255.343-.029.336 3.946c.021.25.026.545.015.887a5.221 5.221 0 0 1-.108 1.033 3.285 3.285 0 0 1-.368.98 2.27 2.27 0 0 1-.732.77c-.304.206-.695.33-1.173.37-.548.047-1.007-.035-1.376-.244a2.38 2.38 0 0 1-.855-.846 6.128 6.128 0 0 1-.513-1.085l-2.482 1.792c-.606.432-1.011.808-1.214 1.127a2.012 2.012 0 0 0-.323.99l-.313.027a1.463 1.463 0 0 1-.138-.38 3.232 3.232 0 0 1-.092-.549Zm4.808-5.602.087 1.03a2.581 2.581 0 0 0 .588 1.425c.19.226.426.401.707.528.282.127.617.174 1.006.14.388-.033.706-.135.952-.306.257-.173.459-.386.608-.64a2.44 2.44 0 0 0 .312-.763c.057-.266.076-.514.057-.743a3.253 3.253 0 0 0-.087-.49 3.057 3.057 0 0 0-.15-.529l-4.08.348Z" fill="#000"/></svg>