<svg width="190" height="195" fill="none" xmlns="http://www.w3.org/2000/svg"><path d="M169.083 102.652c.018-.196.072-.423.16-.683.096-.252.265-.492.508-.721.243-.221.595-.396 1.058-.525l.767-.222.313-3.239-2.114-1.163.054-.552 7.422 4.081-.039.399-6.528 1.986c-.432.14-.747.291-.944.454-.197.162-.327.398-.388.708l-.258-.025a1.483 1.483 0 0 1-.013-.238 1.41 1.41 0 0 1 .002-.26Zm3.269-5.155-.272 2.816 3.453-1.052-3.181-1.764Zm-5.93 18.895c.078-.264.198-.491.36-.68.17-.188.405-.356.703-.506a7.369 7.369 0 0 1 1.187-.399l2.245-.565.207-.701-3.437-1.016.338-1.142 6.07 1.794c.339.101.625.132.858.094.237-.028.406-.212.507-.551l.056-.192.26.077-.882 2.984a5.821 5.821 0 0 1-.242.654 4.12 4.12 0 0 1-.374.725 2.568 2.568 0 0 1-.55.612 1.773 1.773 0 0 1-.756.354c-.281.065-.603.043-.964-.063-.415-.123-.727-.314-.938-.572a1.888 1.888 0 0 1-.384-.864 4.867 4.867 0 0 1-.066-.941l-2.329.602c-.567.144-.97.303-1.21.478a1.578 1.578 0 0 0-.519.633l-.238-.07a1.16 1.16 0 0 1 .008-.317c.015-.135.045-.278.09-.428Zm5.12-2.728-.23.78a2.228 2.228 0 0 0-.082.566c.001.222.035.437.105.646.074.218.197.414.367.588.17.173.402.303.696.39.294.087.555.102.785.047.237-.053.446-.151.627-.294a1.968 1.968 0 0 0 .701-.997c.031-.106.056-.233.076-.383.027-.148.041-.291.041-.431l-3.086-.912Zm-9.008 13.119c.355-.666.823-1.16 1.404-1.483a3.717 3.717 0 0 1 1.92-.446c.696.032 1.383.229 2.063.591.68.362 1.223.821 1.631 1.376.411.566.645 1.18.702 1.843.063.666-.082 1.332-.437 1.998-.354.665-.824 1.154-1.408 1.466a3.616 3.616 0 0 1-1.921.447c-.692-.022-1.378-.213-2.058-.575-.679-.362-1.225-.826-1.636-1.392a3.723 3.723 0 0 1-.701-1.843c-.061-.655.086-1.316.441-1.982Zm.427.227c-.24.451-.315.901-.225 1.35.094.459.336.9.726 1.321.386.428.912.82 1.578 1.174.666.355 1.284.573 1.855.654.567.089 1.064.042 1.491-.141.43-.171.765-.483 1.005-.934.236-.444.307-.895.214-1.355-.087-.455-.323-.897-.71-1.326-.39-.421-.918-.809-1.583-1.164-.666-.354-1.283-.576-1.85-.664-.571-.082-1.073-.033-1.507.146-.427.182-.758.495-.994.939Zm-12.746 17.778c.376-.423.741-.697 1.096-.824a1.432 1.432 0 0 1 1.07.022c.37.151.776.422 1.216.814l3.32 2.954-2.92-6.417.18-.203 6.992 2.073-4.931-4.389.329-.37 5.812 5.173-.799.898-6.39-1.899 2.722 6.02-.784.881-4.315-3.841c-.534-.475-1.005-.784-1.415-.927-.403-.138-.736-.072-.998.2l-.185-.165Zm-12.166 11.498c.161-.114.368-.222.623-.324a1.95 1.95 0 0 1 .877-.085c.326.039.689.192 1.089.458l.668.437 2.659-1.875-.497-2.361.453-.32 1.748 8.288-.327.231-5.764-3.652c-.388-.237-.708-.376-.96-.42-.251-.043-.515.013-.79.168l-.149-.212c.042-.049.099-.104.172-.165.061-.062.128-.119.198-.168Zm6.041-.885-2.312 1.63 3.049 1.932-.737-3.562Zm-24.464 10.381a3.12 3.12 0 0 1 .688-.138c.269-.018.558.036.867.162.302.129.608.376.918.743l.521.606 3.075-1.063.179-2.406.523-.181-.623 8.447-.379.131-4.522-5.11c-.307-.335-.575-.558-.805-.67-.23-.112-.498-.131-.806-.058l-.084-.245c.054-.036.124-.073.211-.111.076-.043.156-.079.237-.107Zm6.049.829-2.674.924 2.393 2.702.281-3.626Zm-15.358 1.821c.271-.049.49-.053.657-.012.161.051.292.175.392.372.1.197.185.489.256.876l1.138 6.227-1.171.214-1.138-6.227c-.064-.348-.162-.622-.294-.821-.139-.19-.382-.254-.73-.19l-.197.036-.049-.267 1.136-.208Zm-11.636 1.319c.275-.011.529.029.76.121.233.101.468.268.706.501.231.242.485.574.762.994l1.262 1.941.731-.031-.152-3.581 1.189-.05.269 6.324c.015.354.078.634.189.842.103.216.332.316.685.301l.2-.008.012.271-3.109.132a6.163 6.163 0 0 1-.697-.018 4.129 4.129 0 0 1-.808-.119 2.593 2.593 0 0 1-.757-.322 1.77 1.77 0 0 1-.58-.601c-.152-.245-.236-.556-.252-.933-.018-.432.061-.789.238-1.072.177-.275.408-.489.692-.643.285-.153.575-.276.87-.367l-1.325-2.008c-.32-.49-.6-.821-.844-.991a1.579 1.579 0 0 0-.767-.286l-.01-.247c.06-.034.162-.066.302-.096a2.57 2.57 0 0 1 .434-.054Zm4.239 3.962-.813.034c-.172.007-.36.043-.561.107-.21.071-.402.174-.577.307a1.551 1.551 0 0 0-.438.538 1.592 1.592 0 0 0-.143.785c.013.306.083.559.209.758.127.207.287.373.481.498.187.126.383.216.59.27a1.928 1.928 0 0 0 .968.018c.149-.022.289-.055.421-.1l-.137-3.215Zm-18.335.389a.64.64 0 0 1 .537.773.625.625 0 0 1-.263.422.637.637 0 0 1-.496.106.601.601 0 0 1-.422-.263.626.626 0 0 1-.108-.485.682.682 0 0 1 .267-.445.626.626 0 0 1 .485-.108ZM67.1 164.375c.181.075.383.193.606.353.212.165.393.397.541.697.14.296.206.684.194 1.164l-.012.799 3.006 1.245 1.73-1.682.512.212-6.07 5.907-.37-.153.006-6.824c-.008-.454-.06-.799-.158-1.035-.098-.236-.286-.429-.565-.578l.1-.24c.064.01.14.029.23.058.087.018.17.044.25.077Zm3.976 4.633-2.614-1.083-.003 3.61 2.617-2.527Zm-16.279-11.16c.23.151.413.332.547.543.13.217.223.49.28.818.046.331.058.749.038 1.252l-.11 2.313.612.401 1.968-2.995.995.654-3.477 5.29c-.194.296-.306.56-.337.794-.043.235.084.45.38.645l.167.11-.149.226-2.6-1.709a6.066 6.066 0 0 1-.556-.421 4.171 4.171 0 0 1-.586-.568 2.588 2.588 0 0 1-.426-.704 1.777 1.777 0 0 1-.12-.826c.02-.288.133-.589.34-.905.238-.361.51-.605.82-.731.304-.12.616-.159.937-.117.32.041.627.111.92.209l.099-2.404c.026-.584-.01-1.016-.107-1.297a1.58 1.58 0 0 0-.456-.68l.136-.207c.07.008.17.041.302.099.124.054.252.124.383.21Zm1.127 5.692-.68-.447a2.035 2.035 0 0 0-1.166-.329 1.537 1.537 0 0 0-.669.181 1.585 1.585 0 0 0-.575.553c-.168.256-.259.502-.273.737-.018.243.015.471.1.686a1.973 1.973 0 0 0 .751.96c.093.06.207.122.345.184.134.069.267.124.4.164l1.767-2.689Zm-9.903-12.397c.535.532.874 1.122 1.015 1.772a3.716 3.716 0 0 1-.126 1.967c-.231.657-.618 1.259-1.16 1.805-.543.547-1.14.935-1.788 1.165a3.615 3.615 0 0 1-1.967.141c-.656-.131-1.252-.462-1.788-.994-.535-.531-.868-1.122-.998-1.772a3.615 3.615 0 0 1 .126-1.967c.22-.657.601-1.258 1.144-1.805.543-.547 1.144-.935 1.805-1.165a3.715 3.715 0 0 1 1.966-.141c.645.131 1.236.463 1.771.994Zm-.34.343c-.363-.36-.772-.561-1.228-.604-.467-.043-.958.062-1.474.314-.522.246-1.048.637-1.58 1.173-.531.535-.918 1.064-1.16 1.587-.25.518-.347 1.008-.296 1.469.04.461.242.871.605 1.231.357.354.769.553 1.236.596.461.048.953-.051 1.474-.297.516-.252 1.04-.646 1.571-1.181.532-.536.922-1.062 1.17-1.58.242-.523.34-1.018.294-1.485-.051-.461-.256-.869-.612-1.223Zm-13.322-17.268c.296.482.454.911.473 1.287.026.371-.083.711-.328 1.018-.25.312-.627.622-1.129.931l-3.784 2.331 6.986-.952.142.23-3.995 6.102 5.621-3.462.26.422-6.625 4.079-.63-1.023 3.655-5.574-6.548.876-.619-1.004 4.919-3.028c.609-.375 1.04-.738 1.295-1.089.248-.346.28-.684.096-1.014l.21-.13Zm-7.469-14.851c.063.186.106.416.131.689.015.269-.042.557-.172.865-.131.301-.383.604-.753.909l-.612.514 1.028 3.087 2.404.206.175.526-8.439-.719-.127-.38 5.161-4.464c.338-.303.565-.569.68-.798.114-.228.136-.497.067-.805l.246-.082c.034.055.07.126.108.213.042.077.077.156.104.239Zm-.896 6.038-.894-2.684-2.73 2.362 3.624.322Zm-2.886-26.48c.008.196-.015.43-.067.699a1.96 1.96 0 0 1-.407.782c-.21.252-.536.473-.977.663l-.73.323.125 3.251 2.251.869.022.553-7.904-3.045-.015-.4 6.201-2.847c.41-.197.7-.389.874-.576.174-.188.27-.44.29-.755l.259-.01c.018.063.033.14.044.235.02.085.03.171.034.258Zm-2.546 5.548-.11-2.827-3.28 1.507 3.39 1.32ZM21.25 89.1c-.03.274-.09.485-.178.633-.095.14-.25.229-.469.268-.218.038-.522.036-.912-.008l-6.29-.706.132-1.183 6.29.706c.352.04.642.025.872-.045.222-.078.353-.292.392-.644l.023-.199.269.03-.129 1.148Zm2.093-11.574a1.824 1.824 0 0 1-.337.692 2.37 2.37 0 0 1-.685.529c-.299.15-.69.296-1.173.439l-2.224.642-.183.708 3.47.897-.3 1.153L15.784 81c-.342-.088-.628-.11-.86-.064-.236.036-.399.225-.487.568l-.05.194-.263-.068.78-3.013c.049-.19.122-.41.22-.662.09-.252.206-.498.349-.737.143-.24.319-.45.528-.63.21-.182.457-.308.744-.38.279-.074.6-.064.966.03.418.109.737.289.956.54.212.25.35.533.413.85.064.317.097.63.098.938l2.308-.68c.561-.164.96-.337 1.193-.52a1.58 1.58 0 0 0 .497-.65l.24.061c.015.07.016.175.003.318-.01.135-.035.279-.075.43Zm-5.024 2.9.203-.787a2.039 2.039 0 0 0-.064-1.21 1.541 1.541 0 0 0-.387-.575 1.576 1.576 0 0 0-.709-.366c-.296-.077-.558-.084-.786-.021-.235.061-.44.166-.617.315a1.915 1.915 0 0 0-.43.486c-.112.182-.191.36-.236.535a2.537 2.537 0 0 0-.063.386 2.384 2.384 0 0 0-.027.431l3.116.806Zm9.605-22.191a.64.64 0 0 1-.38.337.68.68 0 0 1-.517-.047.626.626 0 0 1-.326-.374.64.64 0 0 1 .042-.506.601.601 0 0 1 .374-.327.626.626 0 0 1 .495.037.68.68 0 0 1 .348.384.626.626 0 0 1-.036.496ZM45.617 40.55a3.14 3.14 0 0 1-.583.391c-.24.12-.528.18-.862.184-.328-.003-.706-.114-1.133-.333l-.714-.36-2.43 2.164.76 2.29-.414.368-2.672-8.037.3-.267 6.139 2.98c.412.19.745.293 1 .308.255.015.511-.07.767-.256l.172.194a1.51 1.51 0 0 1-.153.183c-.054.07-.113.133-.177.19Zm-5.903 1.56 2.114-1.882-3.248-1.575 1.134 3.456Zm17.194-9.87a1.829 1.829 0 0 1-.727.255 2.375 2.375 0 0 1-.859-.106 7.25 7.25 0 0 1-1.142-.513l-2.033-1.108-.627.374 1.833 3.078-1.022.61-3.24-5.439c-.181-.303-.37-.52-.566-.65-.194-.141-.442-.121-.746.06l-.172.103-.14-.233 2.674-1.593c.17-.1.376-.206.622-.316.242-.116.497-.209.767-.278.27-.07.543-.095.82-.076.275.018.54.102.795.253.25.143.472.377.665.701.221.372.321.724.3 1.057a1.868 1.868 0 0 1-.304.894c-.178.27-.375.516-.59.736l2.118 1.139c.514.28.919.436 1.214.47.301.031.572-.006.81-.112l.127.213a1.186 1.186 0 0 1-.22.228 2.515 2.515 0 0 1-.357.253Zm-5.612-1.473.7-.416a2.038 2.038 0 0 0 .805-.905c.093-.212.136-.439.129-.681-.007-.243-.09-.496-.246-.76-.157-.263-.338-.452-.544-.567a1.545 1.545 0 0 0-.66-.21 1.916 1.916 0 0 0-.648.042 1.925 1.925 0 0 0-.86.445c-.12.089-.228.185-.323.287l1.647 2.765ZM66.73 27.25c-.712.249-1.39.295-2.037.138a3.718 3.718 0 0 1-1.714-.974c-.49-.495-.861-1.106-1.115-1.833-.255-.727-.343-1.433-.267-2.117a3.616 3.616 0 0 1 .734-1.83c.405-.533.963-.924 1.676-1.173.712-.25 1.388-.29 2.03-.123a3.616 3.616 0 0 1 1.714.974c.494.485.868 1.09 1.123 1.817.254.727.34 1.438.258 2.133a3.719 3.719 0 0 1-.733 1.83c-.4.523-.956.909-1.668 1.158Zm-.159-.456c.482-.169.842-.449 1.08-.84.243-.401.364-.89.362-1.463.007-.577-.114-1.221-.363-1.933-.25-.713-.556-1.292-.92-1.74-.358-.449-.755-.751-1.192-.906-.432-.165-.89-.164-1.372.005-.475.166-.833.45-1.076.85-.245.395-.371.88-.378 1.457.001.574.126 1.217.375 1.929.25.712.552 1.293.91 1.743.364.447.766.751 1.206.914.437.155.893.15 1.368-.016Zm21.257-4.431c-.563.055-1.018.008-1.364-.14a1.43 1.43 0 0 1-.77-.743c-.17-.362-.283-.837-.34-1.424l-.427-4.423-2.219 6.693-.27.026-3.721-6.273.635 6.571-.493.048-.748-7.744 1.197-.116 3.396 5.735 2.095-6.266 1.173-.113.556 5.749c.069.712.205 1.26.407 1.642.203.375.492.553.87.532l.023.246Zm16.958-.228a3.087 3.087 0 0 1-.677-.187 1.965 1.965 0 0 1-.701-.535c-.211-.251-.373-.61-.484-1.077l-.192-.776-3.224-.437-1.244 2.068-.55-.075 4.364-7.26.397.055 1.734 6.6c.123.436.262.756.417.96.155.203.386.342.693.415l-.035.257a1.497 1.497 0 0 1-.238.003c-.088.004-.175 0-.26-.011Zm-5.026-3.466 2.803.38-.918-3.49-1.885 3.11Zm25.287 9.096a3.127 3.127 0 0 1-.597-.369 1.956 1.956 0 0 1-.522-.71c-.133-.3-.188-.69-.164-1.17l.033-.798-2.972-1.323-1.774 1.636-.506-.225 6.223-5.746.366.163-.185 6.82c-.004.455.04.801.131 1.04.092.238.275.436.549.593l-.105.236a1.504 1.504 0 0 1-.23-.063 1.47 1.47 0 0 1-.247-.084Zm-3.853-4.735 2.584 1.15.097-3.608-2.681 2.458Zm12.181 8.949c-.232-.148-.395-.294-.49-.438-.084-.146-.095-.326-.034-.539.061-.212.197-.485.408-.816l3.398-5.34 1.004.638-3.398 5.341c-.19.298-.304.566-.343.802-.027.234.108.446.406.636l.169.107-.145.229-.975-.62Zm9.758 7.17a1.824 1.824 0 0 1-.472-.608 2.35 2.35 0 0 1-.174-.847c-.003-.335.037-.75.122-1.247l.403-2.28-.555-.475-2.333 2.72-.904-.776 4.122-4.804c.23-.269.375-.517.436-.744.072-.229-.027-.458-.295-.688l-.152-.13.176-.206 2.362 2.026c.149.128.315.29.497.489.188.191.357.404.509.638.152.233.263.484.333.752.071.267.076.546.014.835-.056.283-.207.567-.453.854-.281.328-.583.535-.905.62-.318.08-.632.08-.945-.002a4.829 4.829 0 0 1-.886-.326l-.404 2.372c-.101.576-.121 1.01-.059 1.3.067.296.189.54.365.733l-.161.188a1.175 1.175 0 0 1-.287-.137 2.596 2.596 0 0 1-.354-.257Zm-.392-5.788.617.53a2.043 2.043 0 0 0 1.115.475c.23.02.459-.011.687-.095a1.58 1.58 0 0 0 .64-.476c.2-.232.321-.464.365-.696a1.542 1.542 0 0 0-.011-.693 1.913 1.913 0 0 0-.247-.6 1.943 1.943 0 0 0-.695-.674 2.365 2.365 0 0 0-.376-.214l-2.095 2.443Zm18.469 18.758a.64.64 0 0 1 .131-.933.624.624 0 0 1 .479-.13.64.64 0 0 1 .437.26.6.6 0 0 1 .13.479.623.623 0 0 1-.25.43.678.678 0 0 1-.498.144.625.625 0 0 1-.429-.25Zm5.384 23.293a3.125 3.125 0 0 1-.097-.696c-.001-.268.07-.553.215-.855.146-.294.412-.584.797-.871l.636-.483-.875-3.134-2.391-.324-.149-.534 8.393 1.133.108.386-5.374 4.205c-.352.286-.591.54-.717.763-.125.223-.161.49-.107.801l-.25.07a1.528 1.528 0 0 1-.097-.218 1.458 1.458 0 0 1-.092-.243Zm1.192-5.987.761 2.725 2.842-2.226-3.603-.5Zm1.249 19.469a1.836 1.836 0 0 1 .089-.765c.09-.237.247-.479.471-.726a7.19 7.19 0 0 1 .961-.804l1.885-1.343-.062-.728-3.571.303-.101-1.186 6.308-.536c.352-.03.63-.105.832-.225.212-.113.302-.345.272-.698l-.017-.2.271-.022.263 3.1c.017.196.021.429.012.698a4.105 4.105 0 0 1-.085.811c-.055.273-.152.53-.289.77-.137.24-.329.442-.576.605-.238.163-.545.26-.921.292-.431.036-.791-.028-1.081-.192a1.865 1.865 0 0 1-.672-.665 4.824 4.824 0 0 1-.404-.853l-1.95 1.408c-.476.34-.794.636-.954.886a1.58 1.58 0 0 0-.254.779l-.246.02a1.137 1.137 0 0 1-.108-.298 2.56 2.56 0 0 1-.073-.431Zm3.778-4.403.069.81a2.038 2.038 0 0 0 .462 1.12c.15.177.335.315.556.414.222.1.485.137.79.11.306-.025.555-.106.749-.24.201-.136.361-.303.478-.503a1.9 1.9 0 0 0 .244-.6 1.923 1.923 0 0 0-.023-.968 2.402 2.402 0 0 0-.118-.416l-3.207.273Z" fill="#000"/></svg>